/* XPM */
static char * 1_xpm[] = {
"32 32 16 1",
" 	c #3F2B1A",
".	c #46321C",
"+	c #47331D",
"@	c #4E3320",
"#	c #4E381D",
"$	c #52371E",
"%	c #573B22",
"&	c #5F4229",
"*	c #634526",
"=	c #6E4A2C",
"-	c #754F2C",
";	c #7B5531",
">	c #7F5834",
",	c #845C33",
"'	c #886037",
")	c #8D643A",
"++##..++@@@@@@$##$+.++++....@@  ",
"#$))>,'')))))),,))))))))'')),,% ",
"#$)),,'')))))),,))))))))'')),,% ",
"$#''))))--;>,,))'')),,,,-->>>>% ",
"##''))))--;>',))''))>>>,-->>>>% ",
"$$;;-=;;,,---->>;;;;;;,,,>>>==$.",
"$#;;--;;,,---->>>;;;;;,,>>>>==#.",
"..%%%%&&&&&&#@%%&&%$%%&%%%%%%%@.",
"..%%%%&&&&&&#$%%*&%%%%%%%%&%%%@.",
"$$,,'';;''')'',,;;)))),,,,>>,,=$",
"$#,,'';;)''''',,;;)))),>,,>>,,*$",
"$$,>>>'',,--;;;;&&-;,,'''''';;*$",
"$$>>>;'',,-->>;;&&;;'''''''';;*$",
"@@**;;>>,,>>;;--&&''',>>>>====%@",
"@@**;;>>,,>>;;--&&'',';>>;====%+",
"..#$$$%%**%%$$@@@@@@$$%%%%**%%@ ",
"..#$$#%%**%%$$@@@@@@$$%%%%**%$@ ",
"%%,,'))),,,,''))))'''))')))),,=$",
"%%,,'))',,,,''))))'''')))))),,=$",
"%%',>>','''',,>>----,,-->>----*+",
"%%',>>'',',',,>>----,,-->>----*+",
"%%)),'>>--------;;>>>>,>----''*+",
"    ..++%%$#.+    ..@@..+.  ... ",
"  +.$@%%&*%%#$+++.#@%%$$$$++#$+ ",
"$$,,==,,))'',,--,,))))=-'',,,,*$",
"$$,,==,,))'',,--,,))))=='',,,,*$",
"#$-->;'',,-->>----,>',>;,,;;;;%@",
"$$-->;'',,-->>----,,',>>,,;;;;%@",
"@@;;----;;,,;;==,,,,>>--------%.",
"@@;;----;;,,;;==,,',>>--------%.",
"  @#%$++++.+#$%%%%##@@$$++@@@@  ",
"  #@$$++++++##%%%%$#@@#$++#@#@  "};
