/* XPM */
static char * ChatGPT_Image_Sep_7__2025__02_19_26_PM_xpm[] = {
"32 32 187 2",
"  	c #509B66",
". 	c #217E4D",
"+ 	c #135138",
"@ 	c #196341",
"# 	c #22834F",
"$ 	c #1C6F46",
"% 	c #A17923",
"& 	c #CB9A20",
"* 	c #B8942D",
"= 	c #1C6D46",
"- 	c #268D54",
"; 	c #22814E",
"> 	c #22804E",
", 	c #135139",
"' 	c #957523",
") 	c #D8A31F",
"! 	c #F6BC1C",
"~ 	c #C89D1F",
"{ 	c #1C6C45",
"] 	c #1C6D45",
"^ 	c #1E7448",
"/ 	c #238250",
"( 	c #8D4B37",
"_ 	c #9A2029",
": 	c #9A202A",
"< 	c #9B202A",
"[ 	c #651628",
"} 	c #A98122",
"| 	c #FFC21B",
"1 	c #FFC41B",
"2 	c #AA8122",
"3 	c #AA8022",
"4 	c #A98022",
"5 	c #9E7E2A",
"6 	c #238451",
"7 	c #040E26",
"8 	c #D62C2D",
"9 	c #F09B9A",
"0 	c #F2ADAC",
"a 	c #EC7777",
"b 	c #A02129",
"c 	c #A98322",
"d 	c #FCBD1A",
"e 	c #F1A915",
"f 	c #F1AA15",
"g 	c #F2AB15",
"h 	c #F3AD15",
"i 	c #F4AE15",
"j 	c #F3AC15",
"k 	c #DC9517",
"l 	c #051626",
"m 	c #29955A",
"n 	c #701828",
"o 	c #E17D7D",
"p 	c #FBECEC",
"q 	c #FFFFFF",
"r 	c #F2ADAD",
"s 	c #AE242A",
"t 	c #A98822",
"u 	c #F8B618",
"v 	c #DA7A08",
"w 	c #E28C0D",
"x 	c #E38E0D",
"y 	c #E5910D",
"z 	c #E7940D",
"A 	c #E8960D",
"B 	c #E8970D",
"C 	c #E5910B",
"D 	c #DA7F0A",
"E 	c #AF4F19",
"F 	c #124E37",
"G 	c #2DA361",
"H 	c #2A995B",
"I 	c #6E1A28",
"J 	c #E9302E",
"K 	c #FDF4F4",
"L 	c #FEF9F9",
"M 	c #FFFDFD",
"N 	c #AF252B",
"O 	c #A68A22",
"P 	c #F8B718",
"Q 	c #DB7C08",
"R 	c #F2AD16",
"S 	c #C56F11",
"T 	c #124F38",
"U 	c #051129",
"V 	c #B6262B",
"W 	c #A48922",
"X 	c #D97807",
"Y 	c #EEA815",
"Z 	c #AC5616",
"` 	c #134F38",
" .	c #041128",
"..	c #BE272B",
"+.	c #A38122",
"@.	c #DA7807",
"#.	c #F1A812",
"$.	c #B37519",
"%.	c #1E7749",
"&.	c #041027",
"*.	c #962029",
"=.	c #6F1828",
"-.	c #6E1928",
";.	c #9E2228",
">.	c #952028",
",.	c #8E561F",
"'.	c #E0870A",
").	c #DC7E08",
"!.	c #E5920D",
"~.	c #987121",
"{.	c #7A5C23",
"].	c #795222",
"^.	c #573A24",
"/.	c #1D7348",
"(.	c #299559",
"_.	c #030F27",
":.	c #BC2829",
"<.	c #9F212A",
"[.	c #4C447D",
"}.	c #054A8A",
"|.	c #054B8C",
"1.	c #3D3360",
"2.	c #401428",
"3.	c #432826",
"4.	c #6B3E22",
"5.	c #6B3F22",
"6.	c #30518F",
"7.	c #05549C",
"8.	c #05539B",
"9.	c #05427C",
"0.	c #0B372F",
"a.	c #1A6643",
"b.	c #611826",
"c.	c #124888",
"d.	c #0559A5",
"e.	c #034787",
"f.	c #04539A",
"g.	c #055298",
"h.	c #053A70",
"i.	c #04214B",
"j.	c #022F65",
"k.	c #023068",
"l.	c #02316A",
"m.	c #05549B",
"n.	c #034F94",
"o.	c #045198",
"p.	c #05569F",
"q.	c #05427D",
"r.	c #124C37",
"s.	c #2B9C5D",
"t.	c #1D6F46",
"u.	c #040F27",
"v.	c #055EAD",
"w.	c #055DAB",
"x.	c #034786",
"y.	c #044685",
"z.	c #031E44",
"A.	c #02295B",
"B.	c #022C60",
"C.	c #022F66",
"D.	c #04559F",
"E.	c #0456A0",
"F.	c #044D90",
"G.	c #124E38",
"H.	c #2FA763",
"I.	c #044A8B",
"J.	c #055AA6",
"K.	c #156169",
"L.	c #1D7147",
"M.	c #034685",
"N.	c #055BA7",
"O.	c #05569E",
"P.	c #125E77",
"Q.	c #207B4C",
"R.	c #186040",
"S.	c #074E88",
"T.	c #044989",
"U.	c #054A8B",
"V.	c #176A6A",
"W.	c #29975A",
"X.	c #08374D",
"Y.	c #044482",
"Z.	c #115C75",
"`.	c #268C54",
" +	c #175F3E",
".+	c #268C55",
"++	c #1A6743",
"                                                                ",
"                                                                ",
"                                                                ",
"                                                                ",
"                                                                ",
"                                                                ",
"                                                                ",
"                                                                ",
"                        . + @ #                                 ",
"                        $ % & * =                               ",
"                  - ; > , ' ) ! ~ { ] ] ] ] ] ] ] ^             ",
"                / ( _ : < [ } | 1 2 3 3 2 3 } 3 4 5 6           ",
"                7 8 9 0 a b c d e f g g h i i i j k l           ",
"              m n o p q r s t u v w x y z A B C D E F           ",
"          G H I J K L M r N O P Q | | | | | | R S T             ",
"          m U J J J J J J V W u X | | | | | Y Z `               ",
"          m  .J J J J J J ..+.u @.| | | | #.$.%.                ",
"          m &.J J *.=.-.;.>.,.'.).y !.~.{.].^./.                ",
"          (._.:.<.[.}.|.1.2.3.4.4.4.5.6.7.8.9.0.a.              ",
"          m 7 b.c.d.e.f.g.h.i.j.k.l.7 m.n.o.p.q.r.              ",
"          s.t.u.v.w.x.f.w.y.z.A.B.C.7 m.D.E.w.F.G.              ",
"            H.= I.J.w.w.g.K.= = ] L.7 M.N.w.O.P.Q.              ",
"                R.S.T.U.V.W.        = X.Y.T.Z.`.                ",
"                   +` ` .+            ++` ` Q.                  ",
"                                                                ",
"                                                                ",
"                                                                ",
"                                                                ",
"                                                                ",
"                                                                ",
"                                                                ",
"                                                                "};
