/* XPM */
static char * boneco_pulando_32x32_xpm[] = {
"32 32 355 2",
"  c #509B66",
". 	c #509B66",
"+ 	c #509B66",
"@ 	c #509B66",
"# 	c #509B66",
"$ 	c #509B66",
"% 	c #509B66",
"& 	c #509B66",
"* 	c #509B66",
"= 	c #509B66",
"- 	c #509B66",
"; 	c #509B66",
"> 	c #509B66",
", 	c #509B66",
"' 	c #509B66",
") 	c #509B66",
"! 	c #509B66",
"~ 	c #509B66",
"{ 	c #509B66",
"] 	c #509B66",
"^ 	c #509B66",
"/ 	c #509B66",
"( 	c #509B66",
"_ 	c #509B66",
": 	c #509B66",
"< 	c #509B66",
"[ 	c #509B66",
"} 	c #509B66",
"| 	c #509B66",
"1 	c #509B66",
"2 	c #509B66",
"3 	c #509B66",
"4 	c #509B66",
"5 	c #509B66",
"6 	c #509B66",
"7 	c #509B66",
"8 	c #509B66",
"9 	c #509B66",
"0 	c #625246",
"a 	c #442814",
"b 	c #432714",
"c 	c #442714",
"d 	c #726457",
"e 	c #509B66",
"f 	c #509B66",
"g 	c #509B66",
"h 	c #509B66",
"i 	c #509B66",
"j 	c #442815",
"k 	c #543017",
"l 	c #593218",
"m 	c #593318",
"n 	c #5A3318",
"o 	c #512E16",
"p 	c #6B5C4F",
"q 	c #509B66",
"r 	c #509B66",
"s 	c #509B66",
"t 	c #509B66",
"u 	c #3D2514",
"v 	c #563117",
"w 	c #532F17",
"x 	c #583218",
"y 	c #553117",
"z 	c #563118",
"A 	c #554538",
"B 	c #509B66",
"C 	c #509B66",
"D 	c #382313",
"E 	c #573218",
"F 	c #312012",
"G 	c #3B2312",
"H 	c #332112",
"I 	c #332012",
"J 	c #4E2C15",
"K 	c #5C3418",
"L 	c #5B3419",
"M 	c #553017",
"N 	c #332113",
"O 	c #509B66",
"P 	c #509B66",
"Q 	c #509B66",
"R 	c #3C2514",
"S 	c #322012",
"T 	c #98734C",
"U 	c #CD9E6B",
"V 	c #322013",
"W 	c #CD9D69",
"X 	c #9A754D",
"Y 	c #532F16",
"Z 	c #509B66",
"` 	c #509B66",
" .	c #509B66",
"..	c #509B66",
"+.	c #509B66",
"@.	c #3A2413",
"#.	c #5B3318",
"$.	c #D0A16E",
"%.	c #DEAB73",
"&.	c #E1AD74",
"*.	c #CB9C6A",
"=.	c #CF9F6A",
"-.	c #D6A46E",
";.	c #E1AE75",
">.	c #D7A56F",
",.	c #A67F54",
"'.	c #352213",
").	c #509B66",
"!.	c #509B66",
"~.	c #509B66",
"{.	c #452915",
"].	c #CF9F6B",
"^.	c #B99060",
"/.	c #977851",
"(.	c #9D7B53",
"_.	c #B5895B",
":.	c #DFAA71",
"<.	c #A6845A",
"[.	c #967751",
"}.	c #CA9C68",
"|.	c #D09E69",
"1.	c #A98054",
"2.	c #509B66",
"3.	c #509B66",
"4.	c #509B66",
"5.	c #87613F",
"6.	c #B88E60",
"7.	c #CE9D69",
"8.	c #997F4F",
"9.	c #213F1D",
"0.	c #725D3D",
"a.	c #E0AB72",
"b.	c #E2AE74",
"c.	c #60633B",
"d.	c #1C341A",
"e.	c #B78D5E",
"f.	c #E1AD73",
"g.	c #DCA972",
"h.	c #B1865A",
"i.	c #523118",
"j.	c #509B66",
"k.	c #509B66",
"l.	c #A1734B",
"m.	c #E0AC73",
"n.	c #B8945F",
"o.	c #967E51",
"p.	c #A78358",
"q.	c #DEAA71",
"r.	c #A58B5A",
"s.	c #9A7D53",
"t.	c #C99B68",
"u.	c #E1AC73",
"v.	c #E2AE75",
"w.	c #DEAA73",
"x.	c #683E1C",
"y.	c #509B66",
"z.	c #509B66",
"A.	c #AB8769",
"B.	c #D19F6A",
"C.	c #D9A46D",
"D.	c #DFAB72",
"E.	c #E2AD74",
"F.	c #DFAA72",
"G.	c #907764",
"H.	c #509B66",
"I.	c #509B66",
"J.	c #693E1C",
"K.	c #B57B4B",
"L.	c #DBA66E",
"M.	c #E3AF76",
"N.	c #D29C66",
"O.	c #AB7345",
"P.	c #744F33",
"Q.	c #509B66",
"R.	c #509B66",
"S.	c #509B66",
"T.	c #693E1B",
"U.	c #AB7245",
"V.	c #D19B65",
"W.	c #CC9A66",
"X.	c #683D1B",
"Y.	c #663B1A",
"Z.	c #D4A16C",
"`.	c #E4AF76",
" +	c #CB9460",
".+	c #9E683E",
"++	c #8F7766",
"@+	c #509B66",
"#+	c #509B66",
"$+	c #92745D",
"%+	c #865C37",
"&+	c #B48557",
"*+	c #DDA970",
"=+	c #CF9D68",
"-+	c #CE9C67",
";+	c #DDAA71",
">+	c #A3784E",
",+	c #855934",
"'+	c #A98F78",
")+	c #509B66",
"!+	c #A69385",
"~+	c #955244",
"{+	c #902E15",
"]+	c #995736",
"^+	c #A2774D",
"/+	c #A3774D",
"(+	c #A3794E",
"_+	c #914528",
":+	c #8F2D14",
"<+	c #956356",
"[+	c #509B66",
"}+	c #509B66",
"|+	c #509B66",
"1+	c #821C0D",
"2+	c #9F2210",
"3+	c #A52410",
"4+	c #9A2712",
"5+	c #852C14",
"6+	c #862C14",
"7+	c #832B14",
"8+	c #842B14",
"9+	c #9B2611",
"0+	c #A32310",
"a+	c #94200F",
"b+	c #91584D",
"c+	c #509B66",
"d+	c #509B66",
"e+	c #509B66",
"f+	c #509B66",
"g+	c #54150A",
"h+	c #921F0E",
"i+	c #9B210F",
"j+	c #A32311",
"k+	c #A22311",
"l+	c #A22310",
"m+	c #96200F",
"n+	c #95200E",
"o+	c #98210F",
"p+	c #63342A",
"q+	c #509B66",
"r+	c #57210F",
"s+	c #B15838",
"t+	c #722E1B",
"u+	c #8C1F0E",
"v+	c #A52411",
"w+	c #A32411",
"x+	c #A12310",
"y+	c #7D1C0E",
"z+	c #873A23",
"A+	c #A45032",
"B+	c #683E30",
"C+	c #509B66",
"D+	c #693F1C",
"E+	c #865638",
"F+	c #8D1F0E",
"G+	c #A42411",
"H+	c #A42311",
"I+	c #7E1D0E",
"J+	c #A1734C",
"K+	c #D2A06B",
"L+	c #765136",
"M+	c #509B66",
"N+	c #845537",
"O+	c #8B1F0E",
"P+	c #7B1C0D",
"Q+	c #9E7048",
"R+	c #765035",
"S+	c #509B66",
"T+	c #855537",
"U+	c #7B1C0E",
"V+	c #A0734B",
"W+	c #D2A16B",
"X+	c #755035",
"Y+	c #509B66",
"Z+	c #509B66",
"`+	c #509B66",
" @	c #A67A4E",
".@	c #61433C",
"+@	c #5C2739",
"@@	c #6A2B3E",
"#@	c #6A2B3D",
"$@	c #6A2A3B",
"%@	c #6B2B3C",
"&@	c #522434",
"*@	c #74523A",
"=@	c #AF8B69",
"-@	c #509B66",
";@	c #A89684",
">@	c #524E52",
",@	c #1D3756",
"'@	c #224064",
")@	c #1E395A",
"!@	c #132740",
"~@	c #12263E",
"{@	c #203C5D",
"]@	c #234165",
"^@	c #19314E",
"/@	c #6D615A",
"(@	c #509B66",
"_@	c #72706F",
":@	c #25456A",
"<@	c #2F547F",
"[@	c #27486E",
"}@	c #363B45",
"|@	c #102136",
"1@	c #2A4C73",
"2@	c #213E5F",
"3@	c #978F83",
"4@	c #706F70",
"5@	c #27476D",
"6@	c #2E537D",
"7@	c #27486F",
"8@	c #716F6F",
"9@	c #112339",
"0@	c #294B73",
"a@	c #2F5580",
"b@	c #223E5F",
"c@	c #999187",
"d@	c #727071",
"e@	c #28486F",
"f@	c #2E537F",
"g@	c #274970",
"h@	c #716E6E",
"i@	c #12243B",
"j@	c #284B73",
"k@	c #213E60",
"l@	c #978F85",
"m@	c #301E10",
"n@	c #5A351A",
"o@	c #643C1C",
"p@	c #61391A",
"q@	c #563319",
"r@	c #7A7065",
"s@	c #312114",
"t@	c #62391B",
"u@	c #62381A",
"v@	c #502F17",
"w@	c #786F64",
"x@	c #3E2614",
"y@	c #412815",
"z@	c #766C60",
"A@	c #311F12",
"B@	c #3F2714",
"C@	c #392413",
"D@	c #786E63",
"E@	c #509B66",
"F@	c #509B66",
"G@	c #509B66",
"H@	c #509B66",
"I@	c #509B66",
"J@	c #509B66",
"K@	c #509B66",
"L@	c #509B66",
"M@	c #509B66",
"N@	c #509B66",
"                                                                ",
"                                                                ",
"                                                                ",
"                    9 0 a a b c a a a a d                       ",
"                    j k l m l n l n n n o p q                   ",
"_ 8 r ( ~   % s t u l l v w k l x k y x m z A B / * ] % 7 (   ~ ",
"* # % % = & , C D n n E b F G v v H I J K L M N O 8 % =   % =   ",
"_ { P ^ 6 ^ { Q D m m R S T U V N I W X S u Y V Z   : `  ...< +.",
"{ *   f % % & C @.#.S $.%.&.*.V =.-.;.>.,.'.R N ).  * % # + # / ",
"] !.# ~ =  .: ~.'.{.N ].^./.(._.:.<.[.}.|.1.N N 2.* #     % { < ",
"3.% % > % g # 4.5.6.N 7.8.9.0.a.b.c.d.e.f.g.h.i.j.% & + & . % . ",
" .' : %   = * k.l.m.X >.n.o.p.q.m.r.s.t.u.v.w.x.y.: # /   # ~ # ",
"# # #   : * # z.A.B.C.u.&.v.v.a.D.b.a.E.F.C.7.G.H.* # ' + / (   ",
"r 6 ~ /  .  / ~ I.J.K.L.&.&.E.f.m.f.M.a.N.O.P.Q./ * . ~ ~  .  < ",
"% . > $ # / . R.~ S.T.U.V.u.W.X.Y.Z.`. +.+++# ~ % & & . . $ > # ",
"H.~ ] # = # >   / @+#+$+%+&+*+=+-+;+>+,+'+)+  / ~ ] >     { ~ : ",
"= ' # % * $ * # { % !+~+{+]+^+/+(+^+_+:+<+[+% / : * ~ % % % ~ !.",
"# % + % % - $ # }+|+1+2+3+4+5+6+7+8+9+0+a+b+c+#   > % # ~ + * : ",
"$ & d+# & & e+% f+g+0+h+i+j+j+k+j+l+l+m+n+o+p+] # + % ' % R.. * ",
"] * #   % ] # ~ q+r+s+t+u+v+w+0+w+x+k+y+z+A+B+P / = %     #   ~ ",
"    = % % @ # + C+D+M.E+F+G+H+l+G+0+l+I+J+K+L+  # % $ # 3.) & * ",
"{ # # % % * % # M+J.m.N+O+0+0+k+l+k+k+P+Q+K+R+] =   * # ~ % ^ # ",
"^ = = ' 6 # ~ 6 S+J.&.T+O+0+k+l+l+w+x+U+V+W+X+Y+~   ]   {   :  .",
"= * % + f % ] # Z+`+ @.@+@@@#@#@$@%@@@&@*@=@-@/ % % # & . @ # 8 ",
"* ] # . # & . # / ^ ;@>@,@'@)@!@~@{@]@^@/@(@^ ~ #   % * 8 $ 7 { ",
"6 Q.{ 8 { { / 6 Y+: ~ _@:@<@[@}@|@1@<@2@3@/ { ` @+{ { / / / ~ P ",
"%   # % * % *   ] ( * 4@5@6@7@8@9@0@a@b@c@# + * = ( ) ^ # & { 7 ",
"# 6 > & { 8 % 7 7 ~ * d@e@f@g@h@i@j@f@k@l@% { = 6   +   # % 7 ] ",
"f   # f $ > $ * = # m@n@o@p@q@r@s@m t@u@v@w@# # # > + # % % # ] ",
": * '     # ] ] 8 / V x@y@y@R z@A@@.x@B@C@D@% ] 8 %   # # *   _ ",
"~ % : % '   > : / > E@F@G@H@I@J@K@F@L@M@G@N@= 7 _ = * % * * / 6 ",
"                                                                ";
